<?xml version="1.0" encoding="UTF-8" standalone="no"?>
<svg width="512" height="512" viewBox="0 0 512 512" fill="none" xmlns="http://www.w3.org/2000/svg">
  <!-- Vibrant background with bold gradient -->
  <rect width="512" height="512" rx="80" fill="url(#paint0_linear)"/>
  
  <!-- Large, bold star symbol -->
  <path d="M256 72L318 198.3L456 216.7L356 314.2L378 452L256 387.3L134 452L156 314.2L56 216.7L194 198.3L256 72Z" 
        fill="url(#paint1_linear)" stroke="white" stroke-width="12" stroke-linejoin="round"/>
  
  <!-- Inner star for dimension -->
  <path d="M256 144L288 210.4L360 220.4L308 271.6L320 343.2L256 309.6L192 343.2L204 271.6L152 220.4L224 210.4L256 144Z" 
        fill="url(#paint2_linear)" stroke="white" stroke-width="6" stroke-linejoin="round"/>
  
  <!-- Central circle -->
  <circle cx="256" cy="256" r="40" fill="white"/>
  <circle cx="256" cy="256" r="24" fill="url(#paint3_radial)"/>
  
  <!-- Sparkle effects -->
  <circle cx="256" cy="72" r="12" fill="#FFEA80"/>
  <circle cx="456" cy="216.7" r="12" fill="#FFEA80"/>
  <circle cx="56" cy="216.7" r="12" fill="#FFEA80"/>
  <circle cx="378" cy="452" r="12" fill="#FFEA80"/>
  <circle cx="134" cy="452" r="12" fill="#FFEA80"/>
  
  <!-- Additional decorative elements -->
  <circle cx="356" cy="314.2" r="8" fill="#FF9EDF"/>
  <circle cx="156" cy="314.2" r="8" fill="#FF9EDF"/>
  <circle cx="194" cy="198.3" r="8" fill="#FF9EDF"/>
  <circle cx="318" cy="198.3" r="8" fill="#FF9EDF"/>
  
  <!-- Subtle glow effect -->
  <circle cx="256" cy="256" r="200" fill="url(#paint4_radial)" opacity="0.2"/>
  
  <!-- Gradient definitions -->
  <defs>
    <!-- Background gradient - vibrant pink to purple -->
    <linearGradient id="paint0_linear" x1="0" y1="0" x2="512" y2="512" gradientUnits="userSpaceOnUse">
      <stop offset="0" stop-color="#FF458A"/>
      <stop offset="1" stop-color="#9C2D99"/>
    </linearGradient>
    
    <!-- Outer star gradient - gold to orange -->
    <linearGradient id="paint1_linear" x1="256" y1="72" x2="256" y2="452" gradientUnits="userSpaceOnUse">
      <stop offset="0" stop-color="#FFD700"/>
      <stop offset="1" stop-color="#FF8C00"/>
    </linearGradient>
    
    <!-- Inner star gradient - light gold to amber -->
    <linearGradient id="paint2_linear" x1="256" y1="144" x2="256" y2="343.2" gradientUnits="userSpaceOnUse">
      <stop offset="0" stop-color="#FFF4B8"/>
      <stop offset="1" stop-color="#FFB347"/>
    </linearGradient>
    
    <!-- Center circle gradient -->
    <radialGradient id="paint3_radial" cx="0" cy="0" r="1" gradientUnits="userSpaceOnUse" 
                    gradientTransform="translate(256 256) rotate(90) scale(24)">
      <stop offset="0" stop-color="#FF79C6"/>
      <stop offset="1" stop-color="#BD93F9"/>
    </radialGradient>
    
    <!-- Glow effect gradient -->
    <radialGradient id="paint4_radial" cx="0" cy="0" r="1" gradientUnits="userSpaceOnUse" 
                    gradientTransform="translate(256 256) rotate(90) scale(200)">
      <stop offset="0" stop-color="white"/>
      <stop offset="1" stop-color="white" stop-opacity="0"/>
    </radialGradient>
  </defs>
</svg>
